HIERARCHY
ROOT pelvis
{
  OFFSET 0 100 0
  CHANNELS 6 Xposition Yposition Zposition Zrotation Xrotation Yrotation
  JOINT pelvis_right_femur
  {
    OFFSET -10.78128 -3.44521 -0.5502486
    CHANNELS 3 Zrotation Xrotation Yrotation
    JOINT right_femur_tibia
    {
      OFFSET -0.8047443 -44.0398 -0.1307829
      CHANNELS 3 Zrotation Xrotation Yrotation
      JOINT right_tibia_foot
      {
        OFFSET 3.006224 -47.83518 -5
        CHANNELS 3 Zrotation Xrotation Yrotation
        End Site
        {
          OFFSET 0 -5 15
        }
      }
    }
  }
  JOINT pelvis_left_femur
  {
    OFFSET 10.78128 -3.44521 -0.5502486
    CHANNELS 3 Zrotation Xrotation Yrotation
    JOINT left_femur_tibia
    {
      OFFSET 0.8047443 -44.0398 -0.1307829
      CHANNELS 3 Zrotation Xrotation Yrotation
      JOINT left_tibia_foot
      {
        OFFSET -4.370144 -48.10324 -4.275266
        CHANNELS 3 Zrotation Xrotation Yrotation
        End Site
        {
          OFFSET 0 -5 15
        }
      }
    }
  }
  JOINT pelvis_spine1
  {
    OFFSET 0 6.468898 -3.129235
    CHANNELS 3 Zrotation Xrotation Yrotation
    JOINT spine1
    {
      OFFSET 0 23.15396 4.99043
      CHANNELS 3 Zrotation Xrotation Yrotation
      JOINT spine2
      {
        OFFSET 0 20.79997 -5.064912
        CHANNELS 3 Zrotation Xrotation Yrotation
        JOINT neck
        {
          OFFSET 0 14.38658 9.616178
          CHANNELS 3 Zrotation Xrotation Yrotation
          End Site
          {
            OFFSET 0 20 0
          }
        }
      }
      JOINT right_manubrium
      {
        OFFSET -5.722621 16.35077 3.967754
        CHANNELS 3 Zrotation Xrotation Yrotation
        JOINT right_clavicle
        {
          OFFSET -13.16364 1.694482 -4.693211
          CHANNELS 3 Zrotation Xrotation Yrotation
          JOINT right_humerus
          {
            OFFSET -28.5034 -0.3100689 -2.792744
            CHANNELS 3 Zrotation Xrotation Yrotation
            JOINT right_radius
            {
              OFFSET -25.15693 0.02248979 -1.271978
              CHANNELS 3 Zrotation Xrotation Yrotation
              End Site
              {
                OFFSET -15 0 0
              }
            }
          }
        }
      }
      JOINT left_manubrium
      {
        OFFSET 5.722621 16.35077 3.967754
        CHANNELS 3 Zrotation Xrotation Yrotation
        JOINT left_clavicle
        {
          OFFSET 13.16364 1.694482 -4.693211
          CHANNELS 3 Zrotation Xrotation Yrotation
          JOINT left_humerus
          {
            OFFSET 29.39168 -1.063119 -2.237045
            CHANNELS 3 Zrotation Xrotation Yrotation
            JOINT left_radius
            {
              OFFSET 24.59957 -0.9528479 0.9047498
              CHANNELS 3 Zrotation Xrotation Yrotation
              End Site
              {
                OFFSET 15 -0 -0
              }
            }
          }
        }
      }
    }
  }
}
MOTION
Frames: 16
Frame Time: 0.0416666666667
0 103.5113 0 0.1089757 0.2860268 0.2311932 3.601546 -14.26774 7.169559 1.958006e-05 35.1191 -2.038166e-05 -8.711683 -16.49575 -2.299376 -6.707343 6.357654 -23.49158 -1.855745e-05 4.410258 -6.092051e-06 4.497318 -17.94749 24.47214 -3.318687 -1.821224 3.84846 2.371048 7.340639 -6.756061 1.208829 23.01241 7.104049 3.340887 -25.28006 9.470804 5.943677 -19.30809 10.90126 83.82779 37.424 -15.36667 5.326532e-06 -4.986222e-06 15.85316 -5.918783 6.690675 5.428574 5.290925 -17.69968 -0.6786765 -96.84322 30.98136 25.29762 -2.12142e-06 -3.143769e-06 -13.16406 4.160954 18.22722 9.862168
0.3767108 103.5933 1.80665 0.1653044 0.3776082 0.5664617 3.47485 -15.86402 7.190952 1.890823e-05 37.10268 -1.983438e-05 -8.415981 -15.16597 -2.408146 -6.872416 8.018236 -23.61943 -1.762477e-05 4.239883 -5.288887e-06 4.604697 -18.48113 24.2863 -3.451894 -1.896841 3.66877 2.40559 7.457925 -6.985837 1.151559 22.97182 7.302739 3.442028 -25.41476 9.581332 6.17803 -19.04384 10.93483 84.55792 37.66431 -16.29003 4.983352e-06 -4.688267e-06 15.31829 -6.091794 6.891794 5.420369 5.316767 -17.95659 -0.7929667 -96.48514 31.08846 24.64214 -1.794989e-06 -2.844534e-06 -13.90414 4.169778 18.03366 9.965611
0.7482605 103.7146 3.704641 0.1845526 0.5396676 0.9741195 3.470803 -17.76632 7.093192 1.724741e-05 37.54986 -1.810295e-05 -8.147156 -13.99255 -2.522147 -6.911536 9.670132 -23.47176 -1.574799e-05 4.150587 -4.443357e-06 4.655992 -19.01057 23.90781 -3.514775 -1.983296 3.510472 2.483521 7.619154 -7.289551 1.073086 22.84947 7.465039 3.518151 -25.54002 9.623574 6.303062 -18.81988 10.98289 85.3689 37.77424 -17.41287 4.432446e-06 -4.230576e-06 14.73278 -6.351198 7.194582 5.409542 5.417943 -18.41569 -0.9633413 -95.83442 30.98443 23.72992 -1.504256e-06 -2.486719e-06 -15.09887 4.329686 17.8081 9.849012
1.100976 103.8058 5.728682 0.1638517 0.7867728 1.422127 3.586153 -19.87488 6.894747 1.459674e-05 36.47806 -1.520536e-05 -7.897033 -12.97813 -2.618567 -6.841995 11.2035 -23.03814 -1.288263e-05 4.192834 -3.52913e-06 4.645611 -19.48732 23.32853 -3.504232 -2.087679 3.394177 2.604692 7.833293 -7.663752 0.9658193 22.62667 7.593519 3.572672 -25.67046 9.588131 6.332914 -18.65769 11.05608 86.19695 37.77757 -18.68939 3.653031e-06 -3.586695e-06 14.13119 -6.703502 7.610992 5.412993 5.577412 -19.06546 -1.18354 -94.91354 30.64756 22.64116 -1.220782e-06 -2.057694e-06 -16.71718 4.621158 17.53186 9.541105
1.419051 103.7797 7.917199 0.1060291 1.0951 1.873539 3.815686 -22.13743 6.617531 1.140661e-05 33.7864 -1.15482e-05 -7.636 -12.26412 -2.728677 -6.662913 12.57223 -22.32778 -9.154226e-06 4.342458 -2.64841e-06 4.534069 -19.93061 22.58069 -3.421986 -2.188985 3.324677 2.764817 8.071975 -8.092725 0.8456131 22.34179 7.67776 3.59379 -25.77989 9.489669 6.258206 -18.55068 11.14554 87.07919 37.65981 -20.08911 2.702124e-06 -2.796664e-06 13.54612 -7.155459 8.142519 5.436146 5.80607 -19.88251 -1.435543 -93.82582 30.10826 21.38511 -9.920272e-07 -1.597081e-06 -18.7398 5.006186 17.20572 9.08717
1.695521 103.5999 10.28064 0.01751158 1.430758 2.299867 4.117796 -24.25932 6.313774 8.28205e-06 30.16414 -7.862255e-06 -7.407076 -11.75778 -2.813225 -6.428326 13.65689 -21.44437 -5.13001e-06 4.748405 -1.837271e-06 4.347155 -20.22996 21.72341 -3.281532 -2.287872 3.302149 2.940709 8.320761 -8.522393 0.7172141 21.99411 7.718256 3.590691 -25.86341 9.330526 6.119784 -18.48251 11.23983 87.78836 37.46841 -21.41112 1.691236e-06 -1.944449e-06 12.99476 -7.621424 8.707356 5.462892 6.039157 -20.73982 -1.693193 -92.6057 29.42865 20.1289 -7.764038e-07 -1.135058e-06 -20.85295 5.430878 16.84742 8.552155
1.926251 103.2487 12.83956 -0.08038701 1.733976 2.68342 4.447417 -26.20914 6.013735 5.508211e-06 26.10829 -4.467301e-06 -7.151552 -11.37443 -2.915469 -6.171039 14.53976 -20.43445 -1.076717e-06 5.465792 -1.118807e-06 4.055565 -20.419 20.80048 -3.106808 -2.365982 3.311934 3.111893 8.569147 -8.933164 0.5984799 21.63738 7.724752 3.565 -25.89168 9.143636 5.942729 -18.41172 11.3295 88.41598 37.20383 -22.65918 6.866e-07 -1.074921e-06 12.46085 -8.139269 9.307685 5.504716 6.26547 -21.59202 -1.952866 -91.35681 28.67386 18.86382 -5.721898e-07 -6.874568e-07 -22.97551 5.835416 16.44002 8.024968
2.117658 102.7665 15.62192 -0.1568407 1.893948 3.020102 4.743419 -27.68926 5.784438 3.344205e-06 22.64061 -1.791893e-06 -6.837851 -10.96871 -3.067828 -5.956336 15.16567 -19.40184 2.293678e-06 6.823571 -5.446221e-07 3.623049 -20.43473 19.91497 -2.926955 -2.400408 3.353941 3.236692 8.817385 -9.267004 0.5152181 21.36166 7.709401 3.528156 -25.84354 8.973074 5.782568 -18.30563 11.4146 89.04729 36.88643 -23.75361 -1.609223e-07 -2.980626e-07 11.95961 -8.735145 9.914171 5.578494 6.429057 -22.32456 -2.203641 -90.32986 27.96212 17.73694 -3.553744e-07 -2.906458e-07 -24.80897 6.121074 15.98733 7.660418
2.286263 102.266 18.6505 -0.1998161 1.873984 3.316842 4.98435 -28.44347 5.679133 1.663226e-06 20.54541 8.424686e-08 -6.482641 -10.35361 -3.246669 -5.833484 15.44021 -18.41523 4.490074e-06 9.200915 -1.059807e-07 3.05462 -20.14943 19.10388 -2.752751 -2.396452 3.437773 3.293318 9.08482 -9.48909 0.4661459 21.17351 7.687379 3.499924 -25.73795 8.825573 5.701942 -18.14735 11.50498 89.59705 36.58491 -24.60886 -7.811285e-07 3.379603e-07 11.48291 -9.3757 10.49296 5.680936 6.459681 -22.84867 -2.440737 -89.58197 27.36255 16.89753 -5.584811e-08 5.707575e-08 -26.10988 6.234262 15.48481 7.547464
2.452497 101.901 21.92244 -0.2106764 1.655704 3.58232 5.16536 -28.26673 5.709011 4.605064e-07 20.20057 1.028037e-06 -6.172888 -9.472346 -3.40953 -5.812081 15.26991 -17.54945 5.0586e-06 12.75253 1.910339e-07 2.399237 -19.46118 18.41421 -2.582462 -2.359597 3.559459 3.269287 9.366658 -9.561308 0.4520158 21.06345 7.651543 3.487119 -25.57984 8.6919 5.714207 -17.93231 11.59259 89.88767 36.33068 -25.09124 -1.089584e-06 7.546044e-07 11.02742 -9.961716 10.96166 5.774022 6.31369 -23.08446 -2.654464 -89.07683 26.91763 16.44796 3.368637e-07 3.302038e-07 -26.64761 6.181216 14.9772 7.670568
2.62779 101.7912 25.45345 -0.2023743 1.252805 3.804398 5.352442 -27.16013 5.863215 -3.188751e-07 20.887 1.204491e-06 -5.909143 -8.551043 -3.572732 -5.823261 14.5196 -16.70814 4.21395e-06 17.64633 3.67125e-07 1.60218 -18.33929 17.82455 -2.382402 -2.278845 3.753108 3.180527 9.670725 -9.501605 0.4732176 21.0454 7.583344 3.476685 -25.37661 8.55904 5.781904 -17.70125 11.69618 90.05162 36.0926 -25.27982 -1.123065e-06 9.738523e-07 10.63265 -10.53554 11.37592 5.868769 6.024579 -23.10332 -2.847179 -88.89558 26.58491 16.38224 7.667517e-07 5.315553e-07 -26.57799 5.987268 14.46196 8.001264
2.802314 102.0312 29.21746 -0.2171844 0.7199073 3.935771 5.654329 -25.06371 6.139612 -2.46165e-07 21.69179 2.688275e-07 -5.852621 -7.9916 -3.690235 -5.770581 13.02271 -15.9062 1.637404e-06 24.06269 4.074636e-07 0.6742249 -16.68047 17.34853 -2.10033 -2.144744 4.029148 3.057484 9.945652 -9.29873 0.5298433 21.09556 7.438025 3.449956 -25.14119 8.392004 5.852578 -17.46908 11.80359 89.90117 35.88506 -25.09244 -7.849043e-07 8.887166e-07 10.3041 -10.88569 11.65077 5.861736 5.609746 -22.89916 -2.97969 -88.96885 26.37127 16.72177 1.117104e-06 5.921304e-07 -25.88686 5.718269 14.03271 8.415667
2.955487 102.6521 33.19801 -0.2622328 0.06836261 3.912197 6.081411 -22.04684 6.486239 7.420743e-07 21.90124 -1.684145e-06 -5.977632 -8.045165 -3.784736 -5.580286 10.71933 -15.06999 -2.444754e-06 31.75974 5.739395e-07 -0.4102617 -14.55355 17.0035 -1.722953 -1.940573 4.400736 2.910112 10.17281 -8.964595 0.6302843 21.23248 7.194874 3.386008 -24.85029 8.188793 5.869866 -17.27247 11.91297 89.53455 35.64392 -24.56178 -1.153698e-07 5.157073e-07 10.10304 -11.06645 11.826 5.774346 5.126393 -22.52934 -3.046274 -89.34596 26.23649 17.40179 1.304874e-06 4.992108e-07 -24.73105 5.392984 13.69266 8.877333
3.089004 103.6018 37.37643 -0.3176112 -0.6132784 3.691778 6.494056 -18.07712 6.79371 1.934166e-06 21.31845 -3.764461e-06 -6.145987 -8.742701 -3.794793 -5.221494 7.404097 -14.14062 -6.914835e-06 39.29823 1.139569e-06 -1.51025 -12.17686 16.85485 -1.304957 -1.703452 4.905803 2.727506 10.36702 -8.514195 0.7481084 21.39236 6.877156 3.282912 -24.51806 7.943137 5.807554 -17.2808 12.03496 88.87239 35.36271 -23.55609 6.037079e-07 6.197431e-08 10.30602 -11.29904 11.97893 5.787807 4.630824 -22.02735 -3.045279 -90.04382 26.06574 18.54898 1.354135e-06 3.367351e-07 -23.20371 4.995819 13.38344 9.405293
3.205924 104.7823 41.74231 -0.3741719 -1.261337 3.260262 6.826888 -13.62264 6.994448 2.84521e-06 19.92966 -5.370098e-06 -6.251788 -9.877035 -3.736169 -4.698573 3.44668 -13.08495 -1.091749e-05 45.81654 2.018226e-06 -2.549253 -9.815533 16.84284 -0.8910946 -1.45948 5.49587 2.520489 10.53342 -8.007097 0.8661215 21.52088 6.517618 3.14562 -24.13737 7.664857 5.656071 -17.48445 12.15331 87.96742 35.0055 -22.20166 1.190256e-06 -3.158864e-07 10.87771 -11.6863 12.15901 5.952643 4.180225 -21.47787 -3.00586 -90.84041 25.78539 19.93247 1.305854e-06 1.716354e-07 -21.5709 4.565656 13.05398 9.94296
3.324759 106.0099 46.25244 -0.4023937 -1.769896 2.652034 6.9405 -9.214608 7.017043 3.110597e-06 17.99099 -5.928098e-06 -6.193409 -11.31222 -3.58114 -4.068372 -0.7149756 -12.03827 -1.279243e-05 49.34133 2.290842e-06 -3.299439 -7.95689 17.00475 -0.5839288 -1.253933 6.091608 2.29367 10.62581 -7.488105 0.9665146 21.57165 6.166892 2.981254 -23.71517 7.394638 5.40065 -17.93131 12.22526 86.7851 34.56476 -20.49197 1.455187e-06 -4.978967e-07 11.91023 -12.28687 12.33373 6.345618 3.868908 -20.91185 -2.925099 -91.56511 25.39782 21.39271 1.142015e-06 4.331211e-08 -19.98953 4.139718 12.72884 10.42111
